General
Complete name                    : Hulk 2003 HDDVDRIP 720p Hindi~3385VKSH
Format                           : Matroska
File size                        : 2.11 GiB
Duration                         : 2h 12mn
Overall bit rate                 : 2 277 Kbps
Encoded date                     : UTC 2010-08-24 12:18:56
Writing application              : mkvmerge v4.2.0 ('No Talking') built on Jul 28 2010 18:38:23
Writing library                  : libebml v1.0.0 + libmatroska v1.0.0


Video
ID                               : 1
Format                           : AVC
Format/Info                      : Advanced Video Codec
Format profile                   : High@L4.1
Format settings, CABAC           : Yes
Format settings, ReFrames        : 8 frames
Muxing mode                      : Container profile=Unknown@4.1
Codec ID                         : V_MPEG4/ISO/AVC
Duration                         : 2h 12mn
Bit rate                         : 1 968 Kbps
Width                            : 1 280 pixels
Height                           : 688 pixels
Display aspect ratio             : 1.860
Frame rate                       : 25.000 fps
Original frame rate              : 23.976 fps
Color space                      : YUV
Chroma subsampling               : 4:2:0
Bit depth                        : 8 bits
Scan type                        : Progressive
Bits/(Pixel*Frame)               : 0.089
Stream size                      : 1.86 GiB (88%)
Writing library                  : x264 core 80 r1376 3feaec2



Audio
ID                               : 2
Format                           : MPEG Audio
Format version                   : Version 1
Format profile                   : Layer 3
Codec ID                         : A_MPEG/L3
Codec ID/Hint                    : MP3
Duration                         : 1h 8mn
Bit rate mode                    : Constant
Bit rate                         : 224 Kbps
Channel(s)                       : 2 channels
Sampling rate                    : 44.1 KHz
Video delay                      : 2s 600ms
Stream size                      : 109 MiB (5%)
Writing library                  : LAME3.96r
Encoding settings                : -m s -V 4 -q 2 -lowpass 20 -b 224
Language                         : Hindi

Screensshots:
 
http://img836.imageshack.us/img836/189/hulk201626.png
 
http://img405.imageshack.us/img405/4827/hulk201751.png
 
http://img819.imageshack.us/img819/9964/hulk200941.png
 
http://img338.imageshack.us/img338/6889/hulk201104.png
 
http://img836.imageshack.us/img836/641/hulk201311.png



Some people just not seed here.......... plz seed to keep the torrent alive..... 
I will seed it one once..... dont messege me for reseed.......



n most important seeder n leechers are not showing here in database of TPB, so dont messege regarding this also...... I know my job and i am seeding it with a speed of 200kbps......